<?xml version="1.0" encoding="UTF-8"?>
<!DOCTYPE svg PUBLIC "-//W3C//DTD SVG 1.1//EN" "http://www.w3.org/Graphics/SVG/1.1/DTD/svg11.dtd">
<svg xmlns="http://www.w3.org/2000/svg" version="1.1" width="648px" height="648px" style="shape-rendering:geometricPrecision; text-rendering:geometricPrecision; image-rendering:optimizeQuality; fill-rule:evenodd; clip-rule:evenodd" xmlns:xlink="http://www.w3.org/1999/xlink">
<g><path style="opacity:0.854" fill="#010101" d="M 96.5,16.5 C 248.167,16.3333 399.834,16.5 551.5,17C 598.333,26.5 626.5,54.6667 636,101.5C 636.667,229.167 636.667,356.833 636,484.5C 626.5,531.333 598.333,559.5 551.5,569C 399.833,569.667 248.167,569.667 96.5,569C 49.6667,559.5 21.5,531.333 12,484.5C 11.3333,356.833 11.3333,229.167 12,101.5C 21.68,54.6536 49.8467,26.3203 96.5,16.5 Z"/></g>
<g><path style="opacity:1" fill="#1f191a" d="M 105.5,17.5 C 251.167,17.3333 396.834,17.5 542.5,18C 589.378,23.2167 619.545,48.3833 633,93.5C 633.93,98.7993 634.597,104.133 635,109.5C 635.667,231.833 635.667,354.167 635,476.5C 631.045,516.43 610.879,544.596 574.5,561C 564.175,564.915 553.509,567.248 542.5,568C 395.833,568.667 249.167,568.667 102.5,568C 49.7627,559.929 19.9293,529.429 13,476.5C 12.0164,351.146 12.3497,225.813 14,100.5C 20.5779,64.8246 40.4113,39.658 73.5,25C 83.9237,20.8862 94.5904,18.3862 105.5,17.5 Z"/></g>
<g><path style="opacity:1" fill="#708077" d="M 143.5,123.5 C 204.332,122.833 265.332,122.5 326.5,122.5C 387.837,122.5 448.837,123.167 509.5,124.5C 387.522,123.507 265.522,123.174 143.5,123.5 Z"/></g>
<g><path style="opacity:1" fill="#a1bfaf" d="M 143.5,123.5 C 265.522,123.174 387.522,123.507 509.5,124.5C 524.114,129.281 533.948,138.947 539,153.5C 539.167,197.167 539.333,240.833 539.5,284.5C 539.495,328.711 538.828,372.711 537.5,416.5C 535.928,419.318 534.594,422.318 533.5,425.5C 530.873,429.208 527.873,432.708 524.5,436C 518.206,439.981 511.539,443.147 504.5,445.5C 448.5,445.5 392.5,445.5 336.5,445.5C 336.5,460.167 336.5,474.833 336.5,489.5C 352.833,489.5 369.167,489.5 385.5,489.5C 386.481,491.309 387.981,492.643 390,493.5C 390.554,495.61 391.388,497.61 392.5,499.5C 391.311,501.443 390.311,503.443 389.5,505.5C 388.373,506.122 387.373,506.955 386.5,508C 346.096,508.827 305.762,508.66 265.5,507.5C 263.744,505.751 262.411,503.751 261.5,501.5C 261.34,499.801 261.506,498.134 262,496.5C 264.167,494.333 266.333,492.167 268.5,490C 284.339,489.831 300.005,489.331 315.5,488.5C 316.404,487.791 316.737,486.791 316.5,485.5C 316.5,472.167 316.5,458.833 316.5,445.5C 261.5,445.5 206.5,445.5 151.5,445.5C 147.531,444.563 143.531,443.563 139.5,442.5C 138.713,440.896 137.38,440.229 135.5,440.5C 133.243,438.077 130.576,436.243 127.5,435C 124.601,431.335 121.601,427.835 118.5,424.5C 118.38,421.422 117.38,418.755 115.5,416.5C 115.167,415.833 114.833,415.167 114.5,414.5C 114.5,413.5 114.5,412.5 114.5,411.5C 115.833,369.339 116.5,326.839 116.5,284C 116.5,241.161 115.833,198.661 114.5,156.5C 114.433,155.041 114.766,153.708 115.5,152.5C 120.066,138.266 129.4,128.6 143.5,123.5 Z"/></g>
<g><path style="opacity:1" fill="#383735" d="M 503.5,144.5 C 385.5,144.5 267.5,144.5 149.5,144.5C 149.611,143.883 149.944,143.383 150.5,143C 267.833,142.333 385.167,142.333 502.5,143C 503.056,143.383 503.389,143.883 503.5,144.5 Z"/></g>
<g><path style="opacity:1" fill="#1f191a" d="M 149.5,144.5 C 267.5,144.5 385.5,144.5 503.5,144.5C 506.713,145.06 509.713,146.227 512.5,148C 514.905,151.315 516.905,154.815 518.5,158.5C 519.494,241.792 519.828,325.126 519.5,408.5C 515.443,417.236 508.777,422.569 499.5,424.5C 384.167,425.833 268.833,425.833 153.5,424.5C 144.377,423.097 138.044,418.097 134.5,409.5C 134.172,325.459 134.505,241.459 135.5,157.5C 135.98,154.995 136.98,152.662 138.5,150.5C 138.957,149.702 139.624,149.369 140.5,149.5C 141.872,148.488 143.205,147.488 144.5,146.5C 145.93,145.463 147.597,144.796 149.5,144.5 Z"/></g>
<g><path style="opacity:1" fill="#515853" d="M 144.5,146.5 C 143.205,147.488 141.872,148.488 140.5,149.5C 140.694,147.088 142.027,146.088 144.5,146.5 Z"/></g>
<g><path style="opacity:1" fill="#afd1bf" d="M 114.5,156.5 C 115.833,198.661 116.5,241.161 116.5,284C 116.5,326.839 115.833,369.339 114.5,411.5C 114.5,410.833 114.5,410.167 114.5,409.5C 114.5,325.167 114.5,240.833 114.5,156.5 Z"/></g>
<g><path style="opacity:1" fill="#72837a" d="M 115.5,152.5 C 114.766,153.708 114.433,155.041 114.5,156.5C 114.5,240.833 114.5,325.167 114.5,409.5C 113.501,324.335 113.167,239.002 113.5,153.5C 113.842,152.662 114.508,152.328 115.5,152.5 Z"/></g>
<g><path style="opacity:1" fill="#aacbba" d="M 131.5,159.5 C 132.666,242.332 132.832,325.332 132,408.5C 130.836,367.142 130.336,325.642 130.5,284C 130.503,242.43 130.836,200.93 131.5,159.5 Z"/></g>
<g><path style="opacity:1" fill="#647169" d="M 518.5,158.5 C 519.117,158.611 519.617,158.944 520,159.5C 520.832,242.668 520.666,325.668 519.5,408.5C 519.828,325.126 519.494,241.792 518.5,158.5 Z"/></g>
<g><path style="opacity:1" fill="#515853" d="M 113.5,153.5 C 113.167,239.002 113.501,324.335 114.5,409.5C 114.5,410.167 114.5,410.833 114.5,411.5C 114.5,412.5 114.5,413.5 114.5,414.5C 113.883,414.389 113.383,414.056 113,413.5C 112.168,326.666 112.334,239.999 113.5,153.5 Z"/></g>
<g><path style="opacity:1" fill="#3c3e3b" d="M 135.5,157.5 C 134.505,241.459 134.172,325.459 134.5,409.5C 133.334,326.001 133.168,242.334 134,158.5C 134.383,157.944 134.883,157.611 135.5,157.5 Z"/></g>
<g><path style="opacity:1" fill="#616c65" d="M 242.5,189.5 C 223.454,189.192 204.454,189.525 185.5,190.5C 185.611,189.883 185.944,189.383 186.5,189C 205.338,188.171 224.005,188.338 242.5,189.5 Z"/></g>
<g><path style="opacity:1" fill="#616c65" d="M 382.5,189.5 C 344.499,189.333 306.499,189.5 268.5,190C 267.529,191.481 266.196,192.315 264.5,192.5C 265.29,191.206 266.29,190.039 267.5,189C 306.002,188.169 344.336,188.336 382.5,189.5 Z"/></g>
<g><path style="opacity:1" fill="#616c65" d="M 466.5,189.5 C 446.454,189.19 426.454,189.524 406.5,190.5C 406.611,189.883 406.944,189.383 407.5,189C 427.338,188.171 447.004,188.338 466.5,189.5 Z"/></g>
<g><path style="opacity:1" fill="#a2c0b0" d="M 466.5,189.5 C 467.82,190.942 469.486,191.608 471.5,191.5C 474.765,197.739 473.765,203.239 468.5,208C 447.5,208.667 426.5,208.667 405.5,208C 404.619,207.292 403.953,206.458 403.5,205.5C 401.822,202.448 401.155,199.115 401.5,195.5C 402.833,193.5 404.5,191.833 406.5,190.5C 426.454,189.524 446.454,189.19 466.5,189.5 Z"/></g>
<g><path style="opacity:1" fill="#a2bfb0" d="M 242.5,189.5 C 248.268,192.365 250.102,197.032 248,203.5C 246.5,205 245,206.5 243.5,208C 223.427,208.82 203.427,208.654 183.5,207.5C 183.071,204.853 181.738,202.853 179.5,201.5C 179.001,196.362 181.001,192.696 185.5,190.5C 204.454,189.525 223.454,189.192 242.5,189.5 Z"/></g>
<g><path style="opacity:1" fill="#a3c0b0" d="M 382.5,189.5 C 389.786,194.655 390.453,200.655 384.5,207.5C 344.833,208.833 305.167,208.833 265.5,207.5C 264.154,205.463 262.82,203.463 261.5,201.5C 262.047,198.298 263.047,195.298 264.5,192.5C 266.196,192.315 267.529,191.481 268.5,190C 306.499,189.5 344.499,189.333 382.5,189.5 Z"/></g>
<g><path style="opacity:1" fill="#83978c" d="M 264.5,192.5 C 263.047,195.298 262.047,198.298 261.5,201.5C 259.652,197.649 260.652,194.649 264.5,192.5 Z"/></g>
<g><path style="opacity:1" fill="#4f5651" d="M 401.5,195.5 C 401.155,199.115 401.822,202.448 403.5,205.5C 402.542,205.047 401.708,204.381 401,203.5C 400.199,200.633 400.366,197.966 401.5,195.5 Z"/></g>
<g><path style="opacity:1" fill="#444844" d="M 179.5,201.5 C 181.738,202.853 183.071,204.853 183.5,207.5C 181.631,205.966 180.298,203.966 179.5,201.5 Z"/></g>
<g><path style="opacity:1" fill="#545d57" d="M 265.5,207.5 C 305.167,208.833 344.833,208.833 384.5,207.5C 384.389,208.117 384.056,208.617 383.5,209C 344.5,209.667 305.5,209.667 266.5,209C 265.944,208.617 265.611,208.117 265.5,207.5 Z"/></g>
<g><path style="opacity:1" fill="#69776e" d="M 466.5,239.5 C 439.456,239.184 412.456,239.517 385.5,240.5C 385.611,239.883 385.944,239.383 386.5,239C 413.336,238.17 440.003,238.336 466.5,239.5 Z"/></g>
<g><path style="opacity:1" fill="#869c8f" d="M 289.5,242.5 C 288.417,242.539 287.417,242.873 286.5,243.5C 285.494,243.062 285.494,242.396 286.5,241.5C 252.833,240.167 219.167,240.167 185.5,241.5C 184.995,242.919 183.995,243.585 182.5,243.5C 183.483,241.709 184.816,240.209 186.5,239C 219.833,238.333 253.167,238.333 286.5,239C 287.71,240.039 288.71,241.206 289.5,242.5 Z"/></g>
<g><path style="opacity:1" fill="#a3c0b0" d="M 289.5,242.5 C 291.196,244.547 292.53,246.88 293.5,249.5C 292.331,251.42 291.331,253.42 290.5,255.5C 288.547,256.761 286.547,257.927 284.5,259C 252.167,259.667 219.833,259.667 187.5,259C 184.771,258.434 182.771,256.934 181.5,254.5C 181.323,250.766 181.656,247.099 182.5,243.5C 183.995,243.585 184.995,242.919 185.5,241.5C 219.167,240.167 252.833,240.167 286.5,241.5C 285.494,242.396 285.494,243.062 286.5,243.5C 287.417,242.873 288.417,242.539 289.5,242.5 Z"/></g>
<g><path style="opacity:1" fill="#9fbcac" d="M 360.5,258.5 C 344.548,259.47 328.548,259.803 312.5,259.5C 305.772,256.317 303.605,250.984 306,243.5C 307.811,241.457 309.978,239.957 312.5,239C 328.5,238.333 344.5,238.333 360.5,239C 364.339,241.641 366.672,245.141 367.5,249.5C 367.058,253.945 364.725,256.945 360.5,258.5 Z"/></g>
<g><path style="opacity:1" fill="#647169" d="M 385.5,240.5 C 384.71,241.401 383.71,242.068 382.5,242.5C 382.821,240.952 383.821,240.285 385.5,240.5 Z"/></g>
<g><path style="opacity:1" fill="#a2bfaf" d="M 466.5,239.5 C 476.154,246.833 475.82,253.5 465.5,259.5C 439.165,259.667 412.831,259.5 386.5,259C 383.977,257.64 381.977,255.807 380.5,253.5C 379.92,249.351 380.586,245.684 382.5,242.5C 383.71,242.068 384.71,241.401 385.5,240.5C 412.456,239.517 439.456,239.184 466.5,239.5 Z"/></g>
<g><path style="opacity:1" fill="#879d91" d="M 182.5,243.5 C 181.656,247.099 181.323,250.766 181.5,254.5C 180.883,254.389 180.383,254.056 180,253.5C 179.333,250.833 179.333,248.167 180,245.5C 180.708,244.619 181.542,243.953 182.5,243.5 Z"/></g>
<g><path style="opacity:1" fill="#4e5550" d="M 360.5,258.5 C 360.389,259.117 360.056,259.617 359.5,260C 343.661,260.828 327.995,260.661 312.5,259.5C 328.548,259.803 344.548,259.47 360.5,258.5 Z"/></g>
<g><path style="opacity:1" fill="#4b514c" d="M 380.5,253.5 C 381.977,255.807 383.977,257.64 386.5,259C 412.831,259.5 439.165,259.667 465.5,259.5C 437.646,260.804 409.646,260.804 381.5,259.5C 381.483,257.435 381.15,255.435 380.5,253.5 Z"/></g>
<g><path style="opacity:1" fill="#454945" d="M 277.5,291.5 C 274.733,291.858 272.067,292.525 269.5,293.5C 270.23,291.955 271.563,291.122 273.5,291C 275.066,290.235 276.399,290.402 277.5,291.5 Z"/></g>
<g><path style="opacity:1" fill="#a1beae" d="M 397.5,307.5 C 398.167,308.833 399.167,309.833 400.5,310.5C 407.113,316.446 413.446,322.779 419.5,329.5C 419.833,332.167 420.167,334.833 420.5,337.5C 419.508,339.456 418.508,341.456 417.5,343.5C 406.035,354.465 394.702,365.631 383.5,377C 376.375,380.538 371.041,378.705 367.5,371.5C 367.338,369.473 367.505,367.473 368,365.5C 369.481,364.529 370.315,363.196 370.5,361.5C 373.527,357.806 376.86,354.473 380.5,351.5C 383.5,350.5 385.5,348.5 386.5,345.5C 388.839,342.494 391.506,339.827 394.5,337.5C 395.614,336.277 395.781,334.944 395,333.5C 386.278,324.61 377.444,315.943 368.5,307.5C 367.676,304.236 367.342,300.902 367.5,297.5C 371.505,291.768 376.505,290.268 382.5,293C 388.056,297.392 393.056,302.225 397.5,307.5 Z"/></g>
<g><path style="opacity:1" fill="#a1beae" d="M 350.5,294.5 C 351.324,297.764 351.658,301.098 351.5,304.5C 349.465,310.244 347.132,315.91 344.5,321.5C 342.777,322.605 341.777,324.272 341.5,326.5C 339.508,330.795 337.508,335.129 335.5,339.5C 334.792,341.378 333.626,343.045 332,344.5C 331.495,346.518 330.995,348.518 330.5,350.5C 326.501,358.48 322.501,366.48 318.5,374.5C 315.233,377.659 311.233,378.992 306.5,378.5C 300.792,375.127 298.958,370.127 301,363.5C 301.708,362.619 302.542,361.953 303.5,361.5C 305.935,357.871 307.602,353.871 308.5,349.5C 316.996,331.142 325.829,312.809 335,294.5C 340.101,289.241 345.268,289.241 350.5,294.5 Z"/></g>
<g><path style="opacity:1" fill="#a0beae" d="M 277.5,291.5 C 284.202,293.359 287.035,297.692 286,304.5C 276.314,314.685 266.814,325.018 257.5,335.5C 266.63,345.485 275.963,355.152 285.5,364.5C 286.652,367.106 286.818,369.773 286,372.5C 283.973,374.772 281.806,376.939 279.5,379C 276.833,379.667 274.167,379.667 271.5,379C 259,366.5 246.5,354 234,341.5C 233.446,339.39 232.612,337.39 231.5,335.5C 232.922,332.986 234.088,330.319 235,327.5C 246.395,315.937 257.895,304.604 269.5,293.5C 272.067,292.525 274.733,291.858 277.5,291.5 Z"/></g>
<g><path style="opacity:1" fill="#707f76" d="M 350.5,294.5 C 351.117,294.611 351.617,294.944 352,295.5C 352.805,298.696 352.638,301.696 351.5,304.5C 351.658,301.098 351.324,297.764 350.5,294.5 Z"/></g>
<g><path style="opacity:1" fill="#484d49" d="M 367.5,297.5 C 367.342,300.902 367.676,304.236 368.5,307.5C 367.883,307.389 367.383,307.056 367,306.5C 366.195,303.304 366.362,300.304 367.5,297.5 Z"/></g>
<g><path style="opacity:1" fill="#4f5550" d="M 397.5,307.5 C 399.5,307.5 400.5,308.5 400.5,310.5C 399.167,309.833 398.167,308.833 397.5,307.5 Z"/></g>
<g><path style="opacity:1" fill="#4f5550" d="M 344.5,321.5 C 344.223,323.728 343.223,325.395 341.5,326.5C 341.777,324.272 342.777,322.605 344.5,321.5 Z"/></g>
<g><path style="opacity:1" fill="#75877e" d="M 419.5,329.5 C 421.413,332.04 421.746,334.707 420.5,337.5C 420.167,334.833 419.833,332.167 419.5,329.5 Z"/></g>
<g><path style="opacity:1" fill="#4c524e" d="M 420.5,337.5 C 420.975,340.313 419.975,342.313 417.5,343.5C 418.508,341.456 419.508,339.456 420.5,337.5 Z"/></g>
<g><path style="opacity:1" fill="#444844" d="M 335.5,339.5 C 335.657,340.873 335.49,342.207 335,343.5C 333.359,345.84 331.859,348.173 330.5,350.5C 330.995,348.518 331.495,346.518 332,344.5C 333.626,343.045 334.792,341.378 335.5,339.5 Z"/></g>
<g><path style="opacity:1" fill="#798b80" d="M 386.5,345.5 C 385.5,348.5 383.5,350.5 380.5,351.5C 382.167,349.167 384.167,347.167 386.5,345.5 Z"/></g>
<g><path style="opacity:1" fill="#73837a" d="M 308.5,349.5 C 307.602,353.871 305.935,357.871 303.5,361.5C 304.398,357.129 306.065,353.129 308.5,349.5 Z"/></g>
<g><path style="opacity:1" fill="#66736b" d="M 370.5,361.5 C 370.315,363.196 369.481,364.529 368,365.5C 367.505,367.473 367.338,369.473 367.5,371.5C 365.576,367.336 366.576,364.002 370.5,361.5 Z"/></g>
<g><path style="opacity:1" fill="#454945" d="M 318.5,374.5 C 318.468,376.567 317.468,377.9 315.5,378.5C 312.343,379.687 309.343,379.687 306.5,378.5C 311.233,378.992 315.233,377.659 318.5,374.5 Z"/></g>
<g><path style="opacity:1" fill="#4e5550" d="M 115.5,416.5 C 117.38,418.755 118.38,421.422 118.5,424.5C 116.62,422.245 115.62,419.578 115.5,416.5 Z"/></g>
<g><path style="opacity:1" fill="#484d48" d="M 537.5,416.5 C 537.674,420.36 536.341,423.36 533.5,425.5C 534.594,422.318 535.928,419.318 537.5,416.5 Z"/></g>
<g><path style="opacity:1" fill="#505752" d="M 135.5,440.5 C 137.38,440.229 138.713,440.896 139.5,442.5C 137.847,442.34 136.514,441.674 135.5,440.5 Z"/></g>
<g><path style="opacity:1" fill="#323130" d="M 151.5,445.5 C 206.5,445.5 261.5,445.5 316.5,445.5C 316.5,458.833 316.5,472.167 316.5,485.5C 315.505,472.677 315.171,459.677 315.5,446.5C 260.664,446.832 205.997,446.499 151.5,445.5 Z"/></g>
<g><path style="opacity:1" fill="#3b3c3a" d="M 504.5,445.5 C 449.002,446.499 393.336,446.832 337.5,446.5C 337.5,460.5 337.5,474.5 337.5,488.5C 353.675,488.17 369.675,488.504 385.5,489.5C 369.167,489.5 352.833,489.5 336.5,489.5C 336.5,474.833 336.5,460.167 336.5,445.5C 392.5,445.5 448.5,445.5 504.5,445.5 Z"/></g>
<g><path style="opacity:1" fill="#636f67" d="M 315.5,488.5 C 300.005,489.331 284.339,489.831 268.5,490C 266.333,492.167 264.167,494.333 262,496.5C 261.506,498.134 261.34,499.801 261.5,501.5C 260.378,499.712 260.211,497.712 261,495.5C 263.167,493.333 265.333,491.167 267.5,489C 283.497,488.5 299.497,488.333 315.5,488.5 Z"/></g>
<g><path style="opacity:1" fill="#393a38" d="M 389.5,505.5 C 389.461,506.583 389.127,507.583 388.5,508.5C 368,508.833 347.5,509.167 327,509.5C 306.156,509.5 285.656,508.833 265.5,507.5C 305.762,508.66 346.096,508.827 386.5,508C 387.373,506.955 388.373,506.122 389.5,505.5 Z"/></g>
</svg>
