<?xml version="1.0" encoding="UTF-8"?>
<svg xmlns="http://www.w3.org/2000/svg" xmlns:xlink="http://www.w3.org/1999/xlink" width="32px" height="31px" viewBox="0 0 32 31" version="1.1">
<g id="surface1">
<path style=" stroke:none;fill-rule:evenodd;fill:rgb(100%,100%,100%);fill-opacity:1;" d="M 15.953125 0 C 7.132812 0 0 7.105469 0 15.894531 C 0 22.917969 4.570312 28.863281 10.90625 30.96875 C 11.699219 31.128906 11.992188 30.628906 11.992188 30.207031 C 11.992188 29.839844 11.964844 28.574219 11.964844 27.261719 C 7.527344 28.207031 6.601562 25.367188 6.601562 25.367188 C 5.890625 23.523438 4.832031 23.050781 4.832031 23.050781 C 3.378906 22.078125 4.9375 22.078125 4.9375 22.078125 C 6.550781 22.183594 7.394531 23.707031 7.394531 23.707031 C 8.820312 26.128906 11.117188 25.445312 12.042969 25.023438 C 12.175781 23.996094 12.597656 23.285156 13.046875 22.890625 C 9.507812 22.523438 5.785156 21.15625 5.785156 15.050781 C 5.785156 13.3125 6.417969 11.894531 7.421875 10.789062 C 7.261719 10.394531 6.707031 8.761719 7.582031 6.578125 C 7.582031 6.578125 8.925781 6.15625 11.964844 8.210938 C 13.265625 7.863281 14.605469 7.683594 15.953125 7.683594 C 17.300781 7.683594 18.671875 7.867188 19.941406 8.210938 C 22.976562 6.15625 24.324219 6.578125 24.324219 6.578125 C 25.195312 8.761719 24.640625 10.394531 24.484375 10.789062 C 25.511719 11.894531 26.121094 13.3125 26.121094 15.050781 C 26.121094 21.15625 22.398438 22.496094 18.832031 22.890625 C 19.414062 23.390625 19.914062 24.339844 19.914062 25.839844 C 19.914062 27.96875 19.886719 29.679688 19.886719 30.207031 C 19.886719 30.628906 20.179688 31.128906 20.96875 30.96875 C 27.308594 28.863281 31.878906 22.917969 31.878906 15.894531 C 31.90625 7.105469 24.746094 0 15.953125 0 Z M 15.953125 0 "/>
</g>
</svg>
